<svg id="_x33_0" enable-background="new 0 0 64 64" height="512" viewBox="0 0 64 64" width="512" xmlns="http://www.w3.org/2000/svg"><g><g><path d="m32 11.3-8.809 12.112h17.618z" fill="#f0bc5e"/></g><g><path d="m15 49c-2.206 0-4 1.794-4 4v9h8v-9c0-2.206-1.794-4-4-4z" fill="#f0bc5e"/></g><g><path d="m49 49c-2.206 0-4 1.794-4 4v9h8v-9c0-2.206-1.794-4-4-4z" fill="#f0bc5e"/></g><g><circle cx="32" cy="20" r="1"/><path d="m15 23h2v2h-2z"/><path d="m15 27h2v2h-2z"/><path d="m47 23h2v2h-2z"/><path d="m47 27h2v2h-2z"/><path d="m60 39h-1v2h1c.551 0 1 .449 1 1s-.449 1-1 1c-.81 0-1.535-.483-1.846-1.231l-3.718-8.922c-.285-.684-.802-1.218-1.436-1.532v-10.38c1.142-.254 2-1.272 2-2.49 0-.479-.134-.947-.388-1.354l-4.234-6.774c-.329-.526-.82-.897-1.378-1.111v-2.206h2v-2h-2v-2h-2v2h-2v2h2v2.206c-.558.214-1.049.585-1.378 1.113l-4.222 6.754-6.997-8.905c-.367-.468-.859-.792-1.403-.981v-2.187h2v-2h-2v-2h-2v2h-2v2h2v2.187c-.544.189-1.036.513-1.404.982l-6.997 8.904-4.222-6.754c-.328-.528-.819-.899-1.377-1.113v-2.206h2v-2h-2v-2h-2v2h-2v2h2v2.206c-.558.214-1.049.585-1.378 1.113l-4.234 6.774c-.254.406-.388.874-.388 1.353 0 1.217.858 2.235 2 2.49v10.379c-.634.314-1.151.848-1.436 1.532l-3.719 8.923c-.31.747-1.035 1.23-1.845 1.23-.551 0-1-.449-1-1s.449-1 1-1h1v-2h-1c-1.654 0-3 1.346-3 3s1.346 3 3 3h3v18h50v-18h3c1.654 0 3-1.346 3-3s-1.346-3-3-3zm-3.692 3.539c.067.161.148.313.234.461h-12.669c-1.075-.999-2.038-2.109-2.873-3.324v-6.676h10.667c.405 0 .768.242.923.616zm-25.308 18.461h-4v-3c0-2.414 1.721-4.434 4-4.899zm2-7.899c2.279.465 4 2.484 4 4.899v3h-4zm-1-2.101c-3.86 0-7 3.14-7 7v3h-2v-12h18v12h-2v-3c0-3.86-3.14-7-7-7zm-12.667-4c-.184 0-.333-.149-.333-.333 0-.104.05-.204.133-.267l.583-.437c1.857-1.393 3.459-3.068 4.791-4.963h14.986c1.333 1.895 2.934 3.57 4.791 4.963l.583.438c.083.062.133.161.133.266 0 .184-.149.333-.333.333zm-.333-26v10h-6v-10zm2 3.951c.157.031.319.049.486.049h1.514v6h-2zm24 6.049v-10h6v10zm-2 0h-2v-6h1.514c.166 0 .329-.018.486-.049zm-8 4h-2v-2h2zm-2-4v-1.816c.847.302 1.514.969 1.816 1.816zm-2 0h-1.816c.302-.847.969-1.514 1.816-1.816zm-2 2h2v2h-2zm0 4h2v2h-2zm4 0h2v2h-2zm-1-10c-2.757 0-5 2.243-5 5v7h-2v-14h14v14h-2v-7c0-2.757-2.243-5-5-5zm11.084-8.848 4.234-6.774c.148-.237.403-.378.682-.378s.534.141.682.378l4.234 6.774c.055.088.084.19.084.294 0 .305-.249.554-.554.554h-8.892c-.305 0-.554-.249-.554-.554 0-.104.029-.206.084-.294zm-11.916-8.748c.203-.257.505-.404.832-.404s.629.147.832.404l10.064 12.809c.067.085.104.193.104.301 0 .268-.218.486-.486.486h-21.028c-.268 0-.486-.218-.486-.486 0-.108.037-.216.104-.301zm-20.084 8.748 4.234-6.774c.148-.237.403-.378.682-.378s.534.141.682.378l4.234 6.774c.055.088.084.19.084.294 0 .305-.249.554-.554.554h-8.892c-.305 0-.554-.249-.554-.554 0-.104.029-.206.084-.294zm-3.392 24.387 3.719-8.923c.155-.374.518-.616.922-.616h10.667v6.676c-.835 1.216-1.798 2.326-2.873 3.324h-12.669c.086-.148.167-.3.234-.461zm1.308 2.461h8.723c-.449.436-.723 1.034-.723 1.667 0 1.286 1.047 2.333 2.333 2.333h1.667v12h-12zm46 16h-12v-12h1.667c1.286 0 2.333-1.047 2.333-2.333 0-.633-.274-1.23-.724-1.667h8.724z"/></g></g></svg>